Normalized EMG Linear Envelopes
nRows=183
nColumns=4

endheader
time	 med_gas_r	  soleus_r	 tib_ant_r	
3.56227	  0.076708	  0.108186	  0.014804	
3.62477	  0.078235	  0.110891	  0.013330	
3.68726	  0.077658	  0.113381	  0.012152	
3.74976	  0.075849	  0.113204	  0.011207	
3.81226	  0.074627	  0.111931	  0.010494	
3.87475	  0.075189	  0.111665	  0.010246	
3.93725	  0.075706	  0.112995	  0.010284	
3.99974	  0.074877	  0.113480	  0.010521	
4.06224	  0.074617	  0.111131	  0.010586	
4.12474	  0.076889	  0.109382	  0.010558	
4.18723	  0.081135	  0.109014	  0.010473	
4.24973	  0.085870	  0.108074	  0.010546	
4.31222	  0.089738	  0.107279	  0.010848	
4.37472	  0.090347	  0.107664	  0.011137	
4.43722	  0.085013	  0.108290	  0.011315	
4.49971	  0.078311	  0.109909	  0.011339	
4.56221	  0.074663	  0.111341	  0.011213	
4.6247	  0.074918	  0.109718	  0.011001	
4.6872	  0.076389	  0.104394	  0.010801	
4.7497	  0.076706	  0.099972	  0.010459	
4.81219	  0.075860	  0.097526	  0.010161	
4.87469	  0.075846	  0.096871	  0.009967	
4.93718	  0.077442	  0.098700	  0.009907	
4.99968	  0.078877	  0.101069	  0.009916	
5.06218	  0.080288	  0.102297	  0.010112	
5.12467	  0.082422	  0.104106	  0.010668	
5.18717	  0.083442	  0.108419	  0.012187	
5.24966	  0.082763	  0.114748	  0.015584	
5.31216	  0.084141	  0.122179	  0.021162	
5.37466	  0.090116	  0.131492	  0.029196	
5.43715	  0.101184	  0.143440	  0.037528	
5.49965	  0.116980	  0.156757	  0.042969	
5.56214	  0.133804	  0.166476	  0.045707	
5.62464	  0.150070	  0.168931	  0.047364	
5.68714	  0.162069	  0.173005	  0.049043	
5.74963	  0.169118	  0.180182	  0.053314	
5.81213	  0.174862	  0.188604	  0.063358	
5.87462	  0.185112	  0.203139	  0.078975	
5.93712	  0.198522	  0.221729	  0.094896	
5.99962	  0.206197	  0.232067	  0.107395	
6.06211	  0.212256	  0.229836	  0.116584	
6.12461	  0.219116	  0.229718	  0.121436	
6.1871	  0.227451	  0.233270	  0.124705	
6.2496	  0.236227	  0.242567	  0.120687	
6.3121	  0.250038	  0.268598	  0.115707	
6.37459	  0.267685	  0.298631	  0.116136	
6.43709	  0.289887	  0.314291	  0.118360	
6.49958	  0.327886	  0.323096	  0.124722	
6.56208	  0.381597	  0.331984	  0.135592	
6.62458	  0.418488	  0.334858	  0.148903	
6.68707	  0.425460	  0.338647	  0.162057	
6.74957	  0.435554	  0.337441	  0.172398	
6.81206	  0.451941	  0.329984	  0.182820	
6.87456	  0.444009	  0.332392	  0.189887	
6.93706	  0.440514	  0.350230	  0.196210	
6.99955	  0.470615	  0.384258	  0.204825	
7.06205	  0.497401	  0.414797	  0.219970	
7.12454	  0.484853	  0.438559	  0.241834	
7.18704	  0.491024	  0.475199	  0.267301	
7.24954	  0.515907	  0.511111	  0.299376	
7.31203	  0.520305	  0.530489	  0.336351	
7.37453	  0.529107	  0.523028	  0.374798	
7.43702	  0.525674	  0.510750	  0.413614	
7.49952	  0.502067	  0.514423	  0.442809	
7.56202	  0.511547	  0.522170	  0.461748	
7.62451	  0.553582	  0.517564	  0.471749	
7.68701	  0.578210	  0.496594	  0.469951	
7.7495	  0.608327	  0.480277	  0.483563	
7.812	  0.629365	  0.485797	  0.530203	
7.8745	  0.615000	  0.508119	  0.607889	
7.93699	  0.618065	  0.541060	  0.691101	
7.99949	  0.625186	  0.571982	  0.735897	
8.06198	  0.615180	  0.593182	  0.735154	
8.12448	  0.629830	  0.607408	  0.721382	
8.18698	  0.636417	  0.622559	  0.711021	
8.24947	  0.641984	  0.632803	  0.716760	
8.31197	  0.659885	  0.632794	  0.752871	
8.37446	  0.648885	  0.627392	  0.801406	
8.43696	  0.655251	  0.618674	  0.838299	
8.49946	  0.677174	  0.610950	  0.845805	
8.56195	  0.669355	  0.614279	  0.850538	
8.62445	  0.659168	  0.630604	  0.868881	
8.68694	  0.626192	  0.655997	  0.886824	
8.74944	  0.567658	  0.678562	  0.899072	
8.81194	  0.551034	  0.681587	  0.889371	
8.87443	  0.583620	  0.663185	  0.878451	
8.93693	  0.615695	  0.630653	  0.895360	
8.99942	  0.653558	  0.610926	  0.926541	
9.06192	  0.716984	  0.610805	  0.954420	
9.12442	  0.750939	  0.627393	  0.968538	
9.18691	  0.756123	  0.650693	  0.975732	
9.24941	  0.781640	  0.661583	  0.971889	
9.3119	  0.787072	  0.669516	  0.954866	
9.3744	  0.796547	  0.673786	  0.922470	
9.4369	  0.807897	  0.675619	  0.865179	
9.49939	  0.789582	  0.664723	  0.804526	
9.56189	  0.767559	  0.635989	  0.780427	
9.62438	  0.736433	  0.610097	  0.809004	
9.68688	  0.697149	  0.603522	  0.872736	
9.74938	  0.696369	  0.622410	  0.929035	
9.81187	  0.689505	  0.653703	  0.953153	
9.87437	  0.657396	  0.662263	  0.950870	
9.93686	  0.633934	  0.646264	  0.932258	
9.99936	  0.595797	  0.631031	  0.935826	
10.0619	  0.607581	  0.632422	  0.965230	
10.1244	  0.667882	  0.642489	  0.994706	
10.1868	  0.733833	  0.637566	  0.996799	
10.2493	  0.742414	  0.627407	  0.972062	
10.3118	  0.734474	  0.626094	  0.940587	
10.3743	  0.736612	  0.631411	  0.911249	
10.4368	  0.706343	  0.635996	  0.874266	
10.4993	  0.679594	  0.643610	  0.821743	
10.5618	  0.696420	  0.650478	  0.760458	
10.6243	  0.724068	  0.644630	  0.728192	
10.6868	  0.705466	  0.631358	  0.747136	
10.7493	  0.674741	  0.614778	  0.807734	
10.8118	  0.636416	  0.593431	  0.861256	
10.8743	  0.553225	  0.572002	  0.861798	
10.9368	  0.424668	  0.549662	  0.793190	
10.9993	  0.307301	  0.529276	  0.711837	
11.0618	  0.223717	  0.512707	  0.649417	
11.1243	  0.169056	  0.500002	  0.615641	
11.1868	  0.140617	  0.478860	  0.600893	
11.2493	  0.131792	  0.444641	  0.571758	
11.3118	  0.132803	  0.402252	  0.525837	
11.3743	  0.134351	  0.364184	  0.474836	
11.4368	  0.134148	  0.331284	  0.431340	
11.4993	  0.132808	  0.306798	  0.391468	
11.5618	  0.131049	  0.290935	  0.350914	
11.6243	  0.128295	  0.278772	  0.318353	
11.6868	  0.124971	  0.277307	  0.300853	
11.7492	  0.126178	  0.282206	  0.291816	
11.8117	  0.129955	  0.284171	  0.285920	
11.8742	  0.130752	  0.275197	  0.276965	
11.9367	  0.123326	  0.271106	  0.256576	
11.9992	  0.116048	  0.273425	  0.242347	
12.0617	  0.113915	  0.266700	  0.240401	
12.1242	  0.113077	  0.253944	  0.240083	
12.1867	  0.108620	  0.240443	  0.226446	
12.2492	  0.101528	  0.221135	  0.200475	
12.3117	  0.097528	  0.194130	  0.178357	
12.3742	  0.098387	  0.173411	  0.173802	
12.4367	  0.103981	  0.164717	  0.181337	
12.4992	  0.111308	  0.166121	  0.192295	
12.5617	  0.115507	  0.173437	  0.193905	
12.6242	  0.116938	  0.178282	  0.187707	
12.6867	  0.117334	  0.175750	  0.174996	
12.7492	  0.117020	  0.167586	  0.159846	
12.8117	  0.115530	  0.155485	  0.142271	
12.8742	  0.110715	  0.148388	  0.128585	
12.9367	  0.107051	  0.149170	  0.118188	
12.9992	  0.106729	  0.153661	  0.102664	
13.0617	  0.106064	  0.157922	  0.083607	
13.1242	  0.105068	  0.160942	  0.065634	
13.1867	  0.104160	  0.162686	  0.053652	
13.2492	  0.101196	  0.163303	  0.046318	
13.3116	  0.096294	  0.160908	  0.040529	
13.3741	  0.093461	  0.156189	  0.038656	
13.4366	  0.094017	  0.144572	  0.036468	
13.4991	  0.097211	  0.131098	  0.031411	
13.5616	  0.099094	  0.122689	  0.028187	
13.6241	  0.098433	  0.118366	  0.028587	
13.6866	  0.099626	  0.114992	  0.029975	
13.7491	  0.102931	  0.113733	  0.031621	
13.8116	  0.107075	  0.114089	  0.031143	
13.8741	  0.107680	  0.116390	  0.028055	
13.9366	  0.108004	  0.118954	  0.025482	
13.9991	  0.110272	  0.119157	  0.023722	
14.0616	  0.107548	  0.118073	  0.020893	
14.1241	  0.099426	  0.116126	  0.018362	
14.1866	  0.093178	  0.114797	  0.017999	
14.2491	  0.092009	  0.114346	  0.019448	
14.3116	  0.094503	  0.113509	  0.020158	
14.3741	  0.095689	  0.110877	  0.019252	
14.4366	  0.095085	  0.107915	  0.019454	
14.4991	  0.093303	  0.107259	  0.020782	
14.5616	  0.093544	  0.108325	  0.021047	
14.6241	  0.096719	  0.107917	  0.019944	
14.6866	  0.097583	  0.105366	  0.019073	
14.7491	  0.094510	  0.103510	  0.019516	
14.8116	  0.091198	  0.104262	  0.021466	
14.874	  0.088614	  0.107137	  0.022330	
14.9365	  0.086928	  0.110199	  0.019715	
